PathFileType	4	(X/Y/Z)	C:/Users/beibeiliu/ov580/test_trc\sequence.30_training_dense_right.trc
DataRate	CameraRate	NumFrames	NumMarkers	Units	OrigDataRate	OrigDataStartFrame	OrigNumFrames
120	120	16	19	mm	120	89	354
Frame#	Time	ThumbCMC			ThumbMCP			ThumbIP			ThumbTip			IndexMCP			IndexPIP			IndexTip			MiddleMCP			MiddlePIP			MiddleTip			RingMCP			RingPIP			RingTip			PinkyMCP			PinkyPIP			PinkyTip			BackHand1			BackHand2			BackHand3	
		X0	Y0	Z0	X1	Y1	Z1	X2	Y2	Z2	X3	Y3	Z3	X4	Y4	Z4	X5	Y5	Z5	X6	Y6	Z6	X7	Y7	Z7	X8	Y8	Z8	X9	Y9	Z9	X10	Y10	Z10	X11	Y11	Z11	X12	Y12	Z12	X13	Y13	Z13	X14	Y14	Z14	X15	Y15	Z15	X16	Y16	Z16	X17	Y17	Z17	X18	Y18	Z18	
88	0.733333	259.135	9.00728	69.8727	269.109	14.2447	42.931	271.463	10.459	21.6706	274.786	9.29239	1.44691	234.51	3.17619	5.02866	219.131	27.1312	11.8406	233.047	23.3857	39.0552	214.224	-0.470697	8.34582	205.499	23.9701	18.3833	223.061	17.3411	47.3264	204.552	-0.256563	17.8842	203.619	19.3888	35.0301	217.605	3.92504	55.5751	193.612	-10.8754	29.8894	194.428	11.8478	42.3568	213.866	0.250238	59.0484	226.378	-31.0642	50.8398	233.098	-30.1307	77.7113	251.573	-20.5226	61.3217	
89	0.741667	258.461	2.60917	65.6705	266.476	8.85703	43.4212	272.173	5.29505	19.6125	272.714	5.40993	3.45421	235.167	3.29042	5.36207	224.615	27.4418	9.22844	230.387	19.3905	40.9345	215.041	-0.951281	10.3579	208.934	26.4006	21.615	225.521	14.4797	47.0434	202.907	0.257759	18.3102	200.936	18.6209	34.5328	218.676	6.64428	53.2626	188.747	-8.50698	30.818	193.949	12.7223	39.215	210.434	4.96726	58.6808	220.851	-33.9345	54.8275	226.31	-33.058	78.9668	250.321	-24.1663	58.7256	
90	0.75	258.665	1.93932	67.5693	266.936	4.8178	40.8402	270.357	0.585046	17.1472	273.539	2.56932	-0.415218	235.514	3.55278	3.05415	221.401	24.6438	10.3772	231.951	20.666	38.2306	214.013	-2.72266	10.4887	209.166	25.8243	20.5924	221.885	16.0227	47.631	199.029	-2.94156	20.0276	203.378	19.7577	36.9728	216.391	2.85357	54.5008	188.849	-8.51764	31.4946	191.39	13.488	42.9708	208.663	4.41515	57.0453	219.84	-33.7006	51.1846	228.079	-31.8818	82.5887	248.762	-26.2638	59.2804	
91	0.758333	254.039	-2.00759	67.1814	265.448	1.81656	40.1371	265.442	1.80705	21.4842	271.575	1.73149	1.44822	229.676	0.775025	4.42498	222.069	26.9078	12.8108	231.225	18.0535	38.4248	211.303	-0.591055	10.0667	207.5	26.9158	23.9735	221.782	13.5684	47.8596	197.741	-0.154912	19.0824	199.814	20.8745	38.687	214.887	5.5831	53.2669	183.159	-7.56496	32.6315	192.002	14.5328	43.6148	207.037	4.39368	57.8801	215.176	-35.307	51.2461	222.331	-34.6069	81.3901	244.568	-26.6933	61.8736	
92	0.766667	254.073	-3.34181	65.0695	258.663	0.671403	41.9966	265.809	0.430445	20.5349	266.137	-1.57523	1.67946	230.056	0.966522	4.44985	220.951	26.9982	12.4428	228.964	17.0048	38.919	209.654	-1.28634	9.70138	207.604	26.3497	22.1651	216.256	13.171	48.5074	196.944	-0.445411	19.9669	196.883	20.6326	34.1435	211.867	1.61597	56.0917	181.683	-4.08597	31.1891	189.23	14.6802	39.8437	207.431	3.00379	58.1887	212.283	-35.9463	53.5385	219.1	-35.771	83.3147	240.843	-26.9061	61.7291	
93	0.775	252.675	-4.15096	66.511	260.646	1.98025	42.6819	264.218	-3.59801	18.0352	270.663	-0.916593	1.50165	228.287	-0.869361	5.1735	220.948	26.0724	9.55972	227.113	16.0433	39.4184	211.041	-2.78402	10.1567	203.043	25.5243	24.7721	219.095	11.3936	47.6741	194.435	-0.0510792	20.7246	196.755	19.8026	34.2413	212.407	7.92629	53.1842	182.188	-5.19208	32.9934	187.953	15.4077	43.3068	205.528	1.80986	59.1234	208.617	-36.5774	53.2239	221.63	-33.273	83.9364	240.168	-30.2711	59.0033	
94	0.783333	251.29	-1.61934	69.8682	259.922	3.52236	44.9799	264.779	-1.61784	18.696	266.211	-2.58457	-0.943165	225.18	-0.368775	5.89199	217.549	25.8954	12.9113	230.102	19.7121	38.7133	208.774	-1.2714	10.0098	203.926	25.6226	24.2866	218.761	10.5917	48.3977	192.416	-0.543632	20.2933	194.774	19.7813	35.7215	209.002	7.07583	56.6105	184.963	-7.69061	33.552	190.506	14.5755	42.0519	207.38	-0.539556	59.7309	208.966	-34.9548	54.0856	217.654	-34.7589	79.1735	242.485	-29.1243	63.0782	
95	0.791667	254.467	-1.41475	67.3387	262.459	3.41694	43.9093	264.742	-1.91248	16.9374	263.97	-2.98125	1.54675	229.909	-0.560651	5.89292	217.914	25.6942	12.1864	229.222	19.9773	38.4456	207.224	-3.42359	12.1069	204.051	26.2691	22.2025	216.623	12.8477	49.1357	195.547	-2.32943	20.5187	196.959	20.249	34.3623	210.625	7.08515	55.7361	184.823	-5.9374	32.2544	190.926	14.6442	44.9059	205.272	1.31626	58.8852	213.099	-35.9303	53.9382	219.678	-35.7185	80.1418	238.76	-29.5129	59.6073	
96	0.8	256.344	-2.20614	66.2731	258.347	-0.010146	41.42	263.192	-1.18266	20.6903	265.776	-2.35716	0.402285	230.682	1.15797	4.60616	221.693	26.7321	9.36368	225.468	20.059	39.4064	209.691	2.69797	8.87353	202.438	26.225	23.5839	218.111	16.485	48.3775	193.735	-2.14799	22.1575	199.117	21.2953	38.3736	215.499	5.68924	54.0264	180.825	-6.6912	33.616	193.85	14.8223	42.5213	206.23	5.0293	60.0269	214.258	-34.1045	54.919	222.562	-34.4784	78.5955	241.822	-28.5552	62.9244	
97	0.808333	256.863	-2.48065	65.468	259.109	-0.894599	42.8855	267.506	-0.964702	20.7992	266.256	-3.44018	0.501086	227.763	-0.160792	5.41741	220.626	25.8837	11.9664	228.041	18.8188	39.6004	210.327	3.58444	8.3482	207.475	28.2702	21.5839	220.556	14.51	49.1138	194.034	3.49028	21.0059	196.986	22.3753	36.8619	211.213	7.01441	56.679	184.741	-4.08957	32.6306	190.75	17.4361	45.9114	206.003	3.7723	62.4648	210.152	-33.6725	53.041	220.595	-35.4873	78.3734	241.304	-28.536	59.9557	
98	0.816667	257.528	-2.64674	68.3096	262.118	1.02733	44.5011	264.285	-3.1638	21.8159	270.083	-4.5363	-0.0633556	227.393	-0.366704	5.93506	219.912	25.6128	12.298	233.265	18.9143	40.3876	208.498	2.84542	9.4848	208.331	29.7477	24.631	222.095	17.9336	47.7204	194.703	1.42444	22.3265	199.679	23.7036	35.2716	212.921	9.9903	55.046	180.613	-3.20892	34.3957	195.713	19.3431	42.0131	207.288	6.09549	58.6481	212.258	-31.8416	54.8176	218.604	-33.8483	82.2827	241.091	-28.2773	57.9106	
99	0.825	257.64	-5.31452	67.0161	260.639	-1.03648	43.7928	266.082	-5.59073	19.3625	272.583	-6.23695	-0.0332204	231.488	0.605943	5.78104	225.576	26.3082	9.6489	233.454	17.9535	39.8163	212.718	3.89348	8.41781	210.27	29.3556	21.0399	224.794	17.601	47.1487	196.505	5.00319	21.2876	201.436	25.4945	37.5497	212.508	9.65266	56.3553	181.617	1.62335	32.2835	192.063	21.8506	43.8878	209.843	8.87273	59.1055	208.667	-30.4369	52.8629	215.485	-33.8971	81.8945	239.228	-27.848	60.2216	
100	0.833333	255.429	-5.52812	68.3943	263.747	-1.99112	44.0739	267.542	-3.73446	22.4738	267.965	-8.40332	1.45264	228.497	0.0322121	6.44712	226.44	28.3208	11.7566	232.528	21.6958	38.4734	211.231	3.76147	10.7335	210.665	30.7217	22.7222	223.581	18.737	47.4279	196.287	4.44947	21.3951	204.938	27.616	35.108	215.462	7.93843	55.7226	184.37	0.918546	32.9146	194.653	22.9081	38.3148	207.462	11.3051	59.4732	210.633	-28.7884	54.4695	213.648	-32.1044	81.3055	237.406	-30.0128	60.9169	
101	0.841667	256.379	-6.7367	65.6615	259.156	-3.6404	42.7282	267.259	-6.97678	19.323	271.323	-6.01138	4.55637	231.691	2.4042	4.30311	228.224	28.2742	10.0799	233.958	19.6702	40.2718	210.866	6.10898	9.58068	212.93	31.3267	19.7893	225.646	17.2338	48.5182	199.357	6.97607	19.8783	205.533	28.1885	34.7871	216.489	11.0645	54.7205	186.208	1.5943	33.5096	195.495	24.0387	39.9694	209.082	12.8897	59.1586	207.62	-27.6735	58.0684	215.592	-29.0999	82.8261	234.215	-29.2862	61.5593	
102	0.85	251.846	-5.89323	67.927	260.784	-2.07571	44.3236	266.678	-5.38707	19.7122	267.516	-4.15846	5.26665	229.394	0.927862	6.62612	225.091	28.5729	10.3962	232.407	21.1709	39.9704	210.089	5.00128	10.4549	211.061	33.4325	22.6868	221.967	15.6675	50.2721	195.901	6.66891	21.963	204.379	29.5747	33.5082	215.148	13.9428	55.1085	184.567	6.17512	31.1731	193.332	25.8303	39.7635	205.893	15.2383	59.1561	206.42	-27.7974	52.4587	212.293	-30.2765	83.8228	232.122	-28.7035	62.3362	
103	0.858333	253.427	-4.74531	68.7844	257.856	-1.57745	44.7428	261.965	-4.76118	22.4129	267.912	-6.93315	1.20648	224.795	4.24809	5.56396	226.393	30.9965	13.0344	234.9	20.5098	39.9326	206.639	7.03069	11.6557	212.773	34.3024	22.6173	223.531	19.7961	47.4646	195.591	10.7142	19.6576	201.573	30.8544	33.2719	211.742	15.9008	55.1899	180.743	9.10956	30.9674	192.211	27.9395	37.9251	206.465	17.4022	58.4295	201.859	-26.8205	53.6085	211.205	-29.4245	81.8118	234.407	-27.7434	61.5109	
